                                                                        S      1
,,13Hside plate v5,13Hside plate v5,7Hunknown,7Hunknown,32,38,7,99,15,, G      1
1.,2,2HMM,1,0.08,15H20230331.162718,0.01,10000.,7Hunknown,7Hunknown,11, G      2
0,15H20230327.105152;                                                   G      3
     186       1                                                00000000D      1
     186            -199       1       0                               0D      2
     514       2                                                00010000D      3
     514                       2       1                               0D      4
     510       4                                                00010000D      5
     510            -199       1       1                               0D      6
     510       5                                                00010000D      7
     510            -199       1       1                               0D      8
     510       6                                                00010000D      9
     510            -199       1       1                               0D     10
     510       7                                                00010000D     11
     510            -199       1       1                               0D     12
     510       8                                                00010000D     13
     510            -199       1       1                               0D     14
     510       9                                                00010000D     15
     510            -199       1       1                               0D     16
     510      10                                                00010000D     17
     510            -199       1       1                               0D     18
     510      11                                                00010000D     19
     510            -199       1       1                               0D     20
     510      12                                                00010000D     21
     510            -199       1       1                               0D     22
     510      13                                                00010000D     23
     510            -199       1       1                               0D     24
     510      14                                                00010000D     25
     510            -199       1       1                               0D     26
     510      15                                                00010000D     27
     510            -199       1       1                               0D     28
     510      16                                                00010000D     29
     510            -199       1       1                               0D     30
     510      17                                                00010000D     31
     510            -199       1       1                               0D     32
     510      18                                                00010000D     33
     510            -199       1       1                               0D     34
     508      19                                                00010000D     35
     508                       1       1                               0D     36
     508      20                                                00010000D     37
     508                       1       1                               0D     38
     508      21                                                00010000D     39
     508                       1       1                               0D     40
     508      22                                                00010000D     41
     508                       1       1                               0D     42
     508      23                                                00010000D     43
     508                       1       1                               0D     44
     508      24                                                00010000D     45
     508                       1       1                               0D     46
     508      25                                                00010000D     47
     508                       1       1                               0D     48
     508      26                                                00010000D     49
     508                       1       1                               0D     50
     508      27                                                00010000D     51
     508                       1       1                               0D     52
     508      28                                                00010000D     53
     508                       1       1                               0D     54
     508      29                                                00010000D     55
     508                       1       1                               0D     56
     508      30                                                00010000D     57
     508                       1       1                               0D     58
     508      31                                                00010000D     59
     508                       1       1                               0D     60
     508      32                                                00010000D     61
     508                       2       1                               0D     62
     508      34                                                00010000D     63
     508                       1       1                               0D     64
     508      35                                                00010000D     65
     508                       1       1                               0D     66
     508      36                                                00010000D     67
     508                       1       1                               0D     68
     508      37                                                00010000D     69
     508                       1       1                               0D     70
     508      38                                                00010000D     71
     508                       1       1                               0D     72
     508      39                                                00010000D     73
     508                       2       1                               0D     74
     508      41                                                00010000D     75
     508                       1       1                               0D     76
     508      42                                                00010000D     77
     508                       1       1                               0D     78
     508      43                                                00010000D     79
     508                       1       1                               0D     80
     508      44                                                00010000D     81
     508                       1       1                               0D     82
     508      45                                                00010000D     83
     508                       1       1                               0D     84
     126      46                                                00010000D     85
     126       0              11       0                               0D     86
     126      57                                                00010000D     87
     126       0               3       0                               0D     88
     126      60                                                00010000D     89
     126       0              11       0                               0D     90
     126      71                                                00010000D     91
     126       0              11       0                               0D     92
     126      82                                                00010000D     93
     126       0               3       0                               0D     94
     126      85                                                00010000D     95
     126       0              11       0                               0D     96
     126      96                                                00010000D     97
     126       0              12       0                               0D     98
     126     108                                                00010000D     99
     126       0               3       0                               0D    100
     126     111                                                00010000D    101
     126       0              13       0                               0D    102
     126     124                                                00010000D    103
     126       0              12       0                               0D    104
     126     136                                                00010000D    105
     126       0               3       0                               0D    106
     126     139                                                00010000D    107
     126       0              13       0                               0D    108
     126     152                                                00010000D    109
     126       0              12       0                               0D    110
     126     164                                                00010000D    111
     126       0               3       0                               0D    112
     126     167                                                00010000D    113
     126       0              13       0                               0D    114
     126     180                                                00010000D    115
     126       0               2       0                               0D    116
     126     182                                                00010000D    117
     126       0               2       0                               0D    118
     126     184                                                00010000D    119
     126       0               3       0                               0D    120
     126     187                                                00010000D    121
     126       0               2       0                               0D    122
     126     189                                                00010000D    123
     126       0               2       0                               0D    124
     126     191                                                00010000D    125
     126       0               2       0                               0D    126
     126     193                                                00010000D    127
     126       0               2       0                               0D    128
     126     195                                                00010000D    129
     126       0               2       0                               0D    130
     126     197                                                00010000D    131
     126       0               3       0                               0D    132
     126     200                                                00010000D    133
     126       0               3       0                               0D    134
     126     203                                                00010000D    135
     126       0               2       0                               0D    136
     126     205                                                00010000D    137
     126       0               2       0                               0D    138
     126     207                                                00010000D    139
     126       0               2       0                               0D    140
     126     209                                                00010000D    141
     126       0               2       0                               0D    142
     126     211                                                00010000D    143
     126       0               3       0                               0D    144
     126     214                                                00010000D    145
     126       0               2       0                               0D    146
     126     216                                                00010000D    147
     126       0               3       0                               0D    148
     126     219                                                00010000D    149
     126       0               2       0                               0D    150
     126     221                                                00010000D    151
     126       0               2       0                               0D    152
     126     223                                                00010000D    153
     126       0               2       0                               0D    154
     126     225                                                00010000D    155
     126       0               2       0                               0D    156
     126     227                                                00010000D    157
     126       0               2       0                               0D    158
     126     229                                                00010000D    159
     126       0               3       0                               0D    160
     126     232                                                00010000D    161
     126       0               3       0                               0D    162
     128     235                                                00010000D    163
     128       0    -199      17       0                               0D    164
     128     252                                                00010000D    165
     128       0    -199      17       0                               0D    166
     128     269                                                00010000D    167
     128       0    -199      21       0                               0D    168
     128     290                                                00010000D    169
     128       0    -199      21       0                               0D    170
     128     311                                                00010000D    171
     128       0    -199      21       0                               0D    172
     128     332                                                00010000D    173
     128       0    -199       4       0                               0D    174
     128     336                                                00010000D    175
     128       0    -199       5       0                               0D    176
     128     341                                                00010000D    177
     128       0    -199       5       0                               0D    178
     128     346                                                00010000D    179
     128       0    -199       5       0                               0D    180
     128     351                                                00010000D    181
     128       0    -199       5       0                               0D    182
     128     356                                                00010000D    183
     128       0    -199       5       0                               0D    184
     128     361                                                00010000D    185
     128       0    -199       4       0                               0D    186
     128     365                                                00010000D    187
     128       0    -199       5       0                               0D    188
     128     370                                                00010000D    189
     128       0    -199       5       0                               0D    190
     128     375                                                00010000D    191
     128       0    -199       6       0                               0D    192
     502     381                                                00010000D    193
     502                      12       1                               0D    194
     504     393                                                00010001D    195
     504                      11       1                               0D    196
     406     404                                                00000000D    197
     406                       1      15                               0D    198
     314     405                                                00000200D    199
     314                       2       0                               0D    200
186,3,1,0,0,1,197;                                                     1P      1
514,15,5,1,7,1,9,1,11,1,13,1,15,1,17,1,19,1,21,1,23,1,25,1,27,1,       3P      2
29,1,31,1,33,1;                                                        3P      3
510,163,1,1,35;                                                        5P      4
510,165,1,1,37;                                                        7P      5
510,167,1,1,39;                                                        9P      6
510,169,1,1,41;                                                       11P      7
510,171,1,1,43;                                                       13P      8
510,173,1,1,45;                                                       15P      9
510,175,1,1,47;                                                       17P     10
510,177,1,1,49;                                                       19P     11
510,179,1,1,51;                                                       21P     12
510,181,1,1,53;                                                       23P     13
510,183,1,1,55;                                                       25P     14
510,185,1,1,57;                                                       27P     15
510,187,1,1,59;                                                       29P     16
510,189,6,1,61,63,65,67,69,71;                                        31P     17
510,191,6,1,73,75,77,79,81,83;                                        33P     18
508,4,0,195,1,0,0,0,195,2,1,0,0,195,3,0,0,0,195,2,0,0;                35P     19
508,4,0,195,4,0,0,0,195,5,1,0,0,195,6,0,0,0,195,5,0,0;                37P     20
508,4,0,195,7,0,0,0,195,8,1,0,0,195,9,0,0,0,195,8,0,0;                39P     21
508,4,0,195,10,0,0,0,195,11,1,0,0,195,12,0,0,0,195,11,0,0;            41P     22
508,4,0,195,13,0,0,0,195,14,1,0,0,195,15,0,0,0,195,14,0,0;            43P     23
508,4,0,195,16,1,0,0,195,17,1,0,0,195,18,1,0,0,195,19,1,0;            45P     24
508,4,0,195,20,1,0,0,195,21,1,0,0,195,22,1,0,0,195,23,1,0;            47P     25
508,4,0,195,24,0,0,0,195,23,0,0,0,195,25,0,0,0,195,26,0,0;            49P     26
508,4,0,195,27,1,0,0,195,26,1,0,0,195,28,0,0,0,195,29,0,0;            51P     27
508,4,0,195,30,0,0,0,195,29,1,0,0,195,31,1,0,0,195,17,0,0;            53P     28
508,4,0,195,32,1,0,0,195,19,0,0,0,195,33,0,0,0,195,34,0,0;            55P     29
508,4,0,195,35,1,0,0,195,34,1,0,0,195,36,0,0,0,195,37,0,0;            57P     30
508,4,0,195,38,0,0,0,195,37,1,0,0,195,39,1,0,0,195,21,0,0;            59P     31
508,8,0,195,39,0,0,0,195,36,1,0,0,195,33,1,0,0,195,18,0,0,0,195,      61P     32
31,0,0,0,195,28,1,0,0,195,25,1,0,0,195,22,0,0;                        61P     33
508,1,0,195,3,1,0;                                                    63P     34
508,1,0,195,6,1,0;                                                    65P     35
508,1,0,195,7,1,0;                                                    67P     36
508,1,0,195,10,1,0;                                                   69P     37
508,1,0,195,13,1,0;                                                   71P     38
508,8,0,195,38,1,0,0,195,20,0,0,0,195,24,1,0,0,195,27,0,0,0,195,      73P     39
30,1,0,0,195,16,0,0,0,195,32,0,0,0,195,35,0,0;                        73P     40
508,1,0,195,1,1,0;                                                    75P     41
508,1,0,195,4,1,0;                                                    77P     42
508,1,0,195,9,1,0;                                                    79P     43
508,1,0,195,12,1,0;                                                   81P     44
508,1,0,195,15,1,0;                                                   83P     45
126,8,2,0,1,0,0,-3.14159265358979,-3.14159265358979,                  85P     46
-3.14159265358979,-1.5707963267949,-1.5707963267949,0.,0.,            85P     47
1.5707963267949,1.5707963267949,3.14159265358979,                     85P     48
3.14159265358979,3.14159265358979,1.,0.707106781186548,1.,            85P     49
0.707106781186548,1.,0.707106781186548,1.,0.707106781186548,1.,       85P     50
8.75000014901161,0.150888,-4.75,8.75000014901161,0.150888,-3.5,       85P     51
10.0000001490116,0.150888,-3.5,11.2500001490116,0.150888,-3.5,        85P     52
11.2500001490116,0.150888,-4.75,11.2500001490116,0.150888,-6.,        85P     53
10.0000001490116,0.150888,-6.,8.75000014901161,0.150888,-6.,          85P     54
8.75000014901161,0.150888,-4.75,-3.14159265358979,                    85P     55
3.14159265358979,0.,0.,0.;                                            85P     56
126,1,1,0,0,1,0,0.,0.,0.6792896,0.6792896,1.,1.,                      87P     57
8.75000014901161,0.150888,-4.75,8.75000014901161,1.,-4.75,0.,         87P     58
0.6792896,0.,0.,0.;                                                   87P     59
126,8,2,0,1,0,0,-3.14159265358979,-3.14159265358979,                  89P     60
-3.14159265358979,-1.5707963267949,-1.5707963267949,0.,0.,            89P     61
1.5707963267949,1.5707963267949,3.14159265358979,                     89P     62
3.14159265358979,3.14159265358979,1.,0.707106781186548,1.,            89P     63
0.707106781186548,1.,0.707106781186548,1.,0.707106781186548,1.,       89P     64
8.75000014901161,1.,-4.75,8.75000014901161,1.,-6.,                    89P     65
10.0000001490116,1.,-6.,11.2500001490116,1.,-6.,                      89P     66
11.2500001490116,1.,-4.75,11.2500001490116,1.,-3.5,                   89P     67
10.0000001490116,1.,-3.5,8.75000014901161,1.,-3.5,                    89P     68
8.75000014901161,1.,-4.75,-3.14159265358979,3.14159265358979,0.,      89P     69
0.,0.;                                                                89P     70
126,8,2,0,1,0,0,-3.14159265358979,-3.14159265358979,                  91P     71
-3.14159265358979,-1.5707963267949,-1.5707963267949,0.,0.,            91P     72
1.5707963267949,1.5707963267949,3.14159265358979,                     91P     73
3.14159265358979,3.14159265358979,1.,0.707106781186543,1.,            91P     74
0.707106781186543,1.,0.707106781186542,1.,0.707106781186542,1.,       91P     75
43.7525740527036,0.150888,-4.75,43.7525740527036,0.150888,-3.5,       91P     76
45.0025740527036,0.150888,-3.5,46.2525740527036,0.150888,-3.5,        91P     77
46.2525740527036,0.150888,-4.75,46.2525740527036,0.150888,-6.,        91P     78
45.0025740527036,0.150888,-6.,43.7525740527036,0.150888,-6.,          91P     79
43.7525740527036,0.150888,-4.75,-3.14159265358979,                    91P     80
3.14159265358979,0.,0.,0.;                                            91P     81
126,1,1,0,0,1,0,0.,0.,0.6792896,0.6792896,1.,1.,                      93P     82
43.7525740527036,0.150888,-4.75,43.7525740527036,1.,-4.75,0.,         93P     83
0.6792896,0.,0.,0.;                                                   93P     84
126,8,2,0,1,0,0,-3.14159265358979,-3.14159265358979,                  95P     85
-3.14159265358979,-1.5707963267949,-1.5707963267949,0.,0.,            95P     86
1.5707963267949,1.5707963267949,3.14159265358979,                     95P     87
3.14159265358979,3.14159265358979,1.,0.707106781186542,1.,            95P     88
0.707106781186542,1.,0.707106781186543,1.,0.707106781186543,1.,       95P     89
43.7525740527036,1.,-4.75,43.7525740527036,1.,-6.,                    95P     90
45.0025740527036,1.,-6.,46.2525740527036,1.,-6.,                      95P     91
46.2525740527036,1.,-4.75,46.2525740527036,1.,-3.5,                   95P     92
45.0025740527036,1.,-3.5,43.7525740527036,1.,-3.5,                    95P     93
43.7525740527036,1.,-4.75,-3.14159265358979,3.14159265358979,0.,      95P     94
0.,0.;                                                                95P     95
126,8,2,0,1,0,0,-3.14159265358979,-3.14159265358979,                  97P     96
-3.14159265358979,-1.5707963267949,-1.5707963267949,0.,0.,            97P     97
1.5707963267949,1.5707963267949,3.14159265358979,                     97P     98
3.14159265358979,3.14159265358979,1.,0.707106781186539,1.,            97P     99
0.707106781186539,1.,0.707106781186539,1.,0.707106781186539,1.,       97P    100
51.2500007450581,1.,-31.5000004693866,51.2500007450581,1.,            97P    101
-30.2500004693866,50.0000007450581,1.,-30.2500004693866,              97P    102
48.7500007450581,1.,-30.2500004693866,48.7500007450581,1.,            97P    103
-31.5000004693866,48.7500007450581,1.,-32.7500004693866,              97P    104
50.0000007450581,1.,-32.7500004693866,51.2500007450581,1.,            97P    105
-32.7500004693866,51.2500007450581,1.,-31.5000004693866,              97P    106
-3.14159265358979,3.14159265358979,0.,0.,0.;                          97P    107
126,1,1,0,0,1,0,0.,0.,0.6792896,0.6792896,1.,1.,                      99P    108
51.2500007450581,1.,-31.5000004693866,51.2500007450581,0.150888,      99P    109
-31.5000004693866,0.,0.6792896,0.,0.,0.;                              99P    110
126,8,2,0,1,0,0,-3.14159265358979,-3.14159265358979,                 101P    111
-3.14159265358979,-1.5707963267949,-1.5707963267949,0.,0.,           101P    112
1.5707963267949,1.5707963267949,3.14159265358979,                    101P    113
3.14159265358979,3.14159265358979,1.,0.707106781186539,1.,           101P    114
0.707106781186539,1.,0.707106781186539,1.,0.707106781186539,1.,      101P    115
51.2500007450581,0.150888,-31.5000004693866,51.2500007450581,        101P    116
0.150888,-32.7500004693866,50.0000007450581,0.150888,                101P    117
-32.7500004693866,48.7500007450581,0.150888,-32.7500004693866,       101P    118
48.7500007450581,0.150888,-31.5000004693866,48.7500007450581,        101P    119
0.150888,-30.2500004693866,50.0000007450581,0.150888,                101P    120
-30.2500004693866,51.2500007450581,0.150888,-30.2500004693866,       101P    121
51.2500007450581,0.150888,-31.5000004693866,-3.14159265358979,       101P    122
3.14159265358979,0.,0.,0.;                                           101P    123
126,8,2,0,1,0,0,-3.14159265358979,-3.14159265358979,                 103P    124
-3.14159265358979,-1.5707963267949,-1.5707963267949,0.,0.,           103P    125
1.5707963267949,1.5707963267949,3.14159265358979,                    103P    126
3.14159265358979,3.14159265358979,1.,0.707106781186539,1.,           103P    127
0.707106781186539,1.,0.707106781186539,1.,0.707106781186539,1.,      103P    128
46.1225019502883,1.,-34.6204963929393,46.1225019502883,1.,           103P    129
-33.3704963929393,44.8725019502883,1.,-33.3704963929393,             103P    130
43.6225019502883,1.,-33.3704963929393,43.6225019502883,1.,           103P    131
-34.6204963929393,43.6225019502883,1.,-35.8704963929393,             103P    132
44.8725019502883,1.,-35.8704963929393,46.1225019502883,1.,           103P    133
-35.8704963929393,46.1225019502883,1.,-34.6204963929393,             103P    134
-3.14159265358979,3.14159265358979,0.,0.,0.;                         103P    135
126,1,1,0,0,1,0,0.,0.,0.6792896,0.6792896,1.,1.,                     105P    136
46.1225019502883,1.,-34.6204963929393,46.1225019502883,0.150888,     105P    137
-34.6204963929393,0.,0.6792896,0.,0.,0.;                             105P    138
126,8,2,0,1,0,0,-3.14159265358979,-3.14159265358979,                 107P    139
-3.14159265358979,-1.5707963267949,-1.5707963267949,0.,0.,           107P    140
1.5707963267949,1.5707963267949,3.14159265358979,                    107P    141
3.14159265358979,3.14159265358979,1.,0.707106781186539,1.,           107P    142
0.707106781186539,1.,0.707106781186539,1.,0.707106781186539,1.,      107P    143
46.1225019502883,0.150888,-34.6204963929393,46.1225019502883,        107P    144
0.150888,-35.8704963929393,44.8725019502883,0.150888,                107P    145
-35.8704963929393,43.6225019502883,0.150888,-35.8704963929393,       107P    146
43.6225019502883,0.150888,-34.6204963929393,43.6225019502883,        107P    147
0.150888,-33.3704963929393,44.8725019502883,0.150888,                107P    148
-33.3704963929393,46.1225019502883,0.150888,-33.3704963929393,       107P    149
46.1225019502883,0.150888,-34.6204963929393,-3.14159265358979,       107P    150
3.14159265358979,0.,0.,0.;                                           107P    151
126,8,2,0,1,0,0,-3.14159265358979,-3.14159265358979,                 109P    152
-3.14159265358979,-1.5707963267949,-1.5707963267949,0.,0.,           109P    153
1.5707963267949,1.5707963267949,3.14159265358979,                    109P    154
3.14159265358979,3.14159265358979,1.,0.707106781186551,1.,           109P    155
0.707106781186553,1.,0.707106781186553,1.,0.707106781186551,1.,      109P    156
11.2675019502883,1.,-34.6204963929393,11.2675019502883,1.,           109P    157
-33.3704963929393,10.0175019502883,1.,-33.3704963929393,             109P    158
8.76750195028834,1.,-33.3704963929393,8.76750195028834,1.,           109P    159
-34.6204963929393,8.76750195028834,1.,-35.8704963929393,             109P    160
10.0175019502883,1.,-35.8704963929393,11.2675019502883,1.,           109P    161
-35.8704963929393,11.2675019502883,1.,-34.6204963929393,             109P    162
-3.14159265358979,3.14159265358979,0.,0.,0.;                         109P    163
126,1,1,0,0,1,0,0.,0.,0.679289599999999,0.679289599999999,1.,1.,     111P    164
11.2675019502883,1.,-34.6204963929393,11.2675019502883,0.150888,     111P    165
-34.6204963929393,0.,0.679289599999999,0.,0.,0.;                     111P    166
126,8,2,0,1,0,0,-3.14159265358979,-3.14159265358979,                 113P    167
-3.14159265358979,-1.5707963267949,-1.5707963267949,0.,0.,           113P    168
1.5707963267949,1.5707963267949,3.14159265358979,                    113P    169
3.14159265358979,3.14159265358979,1.,0.707106781186551,1.,           113P    170
0.707106781186553,1.,0.707106781186553,1.,0.707106781186551,1.,      113P    171
11.2675019502883,0.150888,-34.6204963929393,11.2675019502883,        113P    172
0.150888,-35.8704963929393,10.0175019502883,0.150888,                113P    173
-35.8704963929393,8.76750195028834,0.150888,-35.8704963929393,       113P    174
8.76750195028834,0.150888,-34.6204963929393,8.76750195028834,        113P    175
0.150888,-33.3704963929393,10.0175019502883,0.150888,                113P    176
-33.3704963929393,11.2675019502883,0.150888,-33.3704963929393,       113P    177
11.2675019502883,0.150888,-34.6204963929393,-3.14159265358979,       113P    178
3.14159265358979,0.,0.,0.;                                           113P    179
126,1,1,0,0,1,0,0.,0.,1.4,1.4,1.,1.,53.,0.150888,-36.417144,         115P    180
41.112432,0.150888,-36.417144,0.,1.4,0.,0.,0.;                       115P    181
126,1,1,0,0,1,0,0.,0.,0.1,0.1,1.,1.,41.112432,0.150888,              117P    182
-36.417144,41.112432,1.,-36.417144,0.,0.1,0.,0.,0.;                  117P    183
126,1,1,0,0,1,0,-1.4,-1.4,2.22044604925031D-16,                      119P    184
2.22044604925031D-16,1.,1.,41.112432,1.,-36.417144,53.,1.,           119P    185
-36.417144,-1.4,2.22044604925031D-16,0.,0.,0.;                       119P    186
126,1,1,0,0,1,0,-0.1,-0.1,0.,0.,1.,1.,53.,1.,-36.417144,53.,         121P    187
0.150888,-36.417144,-0.1,0.,0.,0.,0.;                                121P    188
126,1,1,0,0,1,0,4.8,4.8,5.3,5.3,1.,1.,12.242624,0.150888,            123P    189
-36.417144,7.997064,0.150888,-36.417144,4.8,5.3,0.,0.,0.;            123P    190
126,1,1,0,0,1,0,0.,0.,0.1,0.1,1.,1.,7.997064,0.150888,               125P    191
-36.417144,7.997064,1.,-36.417144,0.,0.1,0.,0.,0.;                   125P    192
126,1,1,0,0,1,0,-5.3,-5.3,-4.8,-4.8,1.,1.,7.997064,1.,               127P    193
-36.417144,12.242624,1.,-36.417144,-5.3,-4.8,0.,0.,0.;               127P    194
126,1,1,0,0,1,0,-0.1,-0.1,0.,0.,1.,1.,12.242624,1.,-36.417144,       129P    195
12.242624,0.150888,-36.417144,-0.1,0.,0.,0.,0.;                      129P    196
126,1,1,0,0,1,0,-0.588850469667135,-0.588850469667135,3.4,3.4,       131P    197
1.,1.,12.242624,0.150888,-36.417144,12.242624,0.150888,              131P    198
-2.547336,-0.588850469667135,3.4,0.,0.,0.;                           131P    199
126,1,1,0,0,1,0,-3.4,-3.4,0.588850469667134,0.588850469667134,       133P    200
1.,1.,12.242624,1.,-2.547336,12.242624,1.,-36.417144,-3.4,           133P    201
0.588850469667134,0.,0.,0.;                                          133P    202
126,1,1,0,0,1,0,0.,0.,0.1,0.1,1.,1.,12.242624,0.150888,              135P    203
-2.547336,12.242624,1.,-2.547336,0.,0.1,0.,0.,0.;                    135P    204
126,1,1,0,0,1,0,1.4,1.4,4.8,4.8,1.,1.,41.112432,0.150888,            137P    205
-2.547336,12.242624,0.150888,-2.547336,1.4,4.8,0.,0.,0.;             137P    206
126,1,1,0,0,1,0,1.4,1.4,4.8,4.8,1.,1.,41.112432,1.,-2.547336,        139P    207
12.242624,1.,-2.547336,1.4,4.8,0.,0.,0.;                             139P    208
126,1,1,0,0,1,0,0.,0.,0.1,0.1,1.,1.,41.112432,0.150888,              141P    209
-2.547336,41.112432,1.,-2.547336,0.,0.1,0.,0.,0.;                    141P    210
126,1,1,0,0,1,0,-2.8869808,-2.8869808,0.5,0.5,1.,1.,41.112432,       143P    211
0.150888,-2.547336,41.112432,0.150888,-36.417144,-2.8869808,0.5,     143P    212
0.,0.,0.;                                                            143P    213
126,1,1,0,0,1,0,-2.8869808,-2.8869808,0.5,0.5,1.,1.,41.112432,       145P    214
1.,-2.547336,41.112432,1.,-36.417144,-2.8869808,0.5,0.,0.,0.;        145P    215
126,1,1,0,0,1,0,0.,0.,4.28885046966713,4.28885046966713,1.,1.,       147P    216
53.,0.150888,0.,53.,0.150888,-36.417144,0.,4.28885046966713,0.,      147P    217
0.,0.;                                                               147P    218
126,1,1,0,0,1,0,0.,0.,4.28885046966713,4.28885046966713,1.,1.,       149P    219
53.,1.,0.,53.,1.,-36.417144,0.,4.28885046966713,0.,0.,0.;            149P    220
126,1,1,0,0,1,0,0.,0.,0.1,0.1,1.,1.,53.,0.150888,0.,53.,1.,0.,       151P    221
0.,0.1,0.,0.,0.;                                                     151P    222
126,1,1,0,0,1,0,0.,0.,5.3,5.3,1.,1.,7.997064,0.150888,0.,53.,        153P    223
0.150888,0.,0.,5.3,0.,0.,0.;                                         153P    224
126,1,1,0,0,1,0,0.,0.,5.3,5.3,1.,1.,7.997064,1.,0.,53.,1.,0.,0.,     155P    225
5.3,0.,0.,0.;                                                        155P    226
126,1,1,0,0,1,0,0.,0.,0.1,0.1,1.,1.,7.997064,0.150888,0.,            157P    227
7.997064,1.,0.,0.,0.1,0.,0.,0.;                                      157P    228
126,1,1,0,0,1,0,-3.1417144,-3.1417144,0.5,0.5,1.,1.,7.997064,        159P    229
0.150888,-4.44089209850063D-15,7.997064,0.150888,-36.417144,         159P    230
-3.1417144,0.5,0.,0.,0.;                                             159P    231
126,1,1,0,0,1,0,-3.1417144,-3.1417144,0.5,0.5,1.,1.,7.997064,1.,     161P    232
-4.44089209850063D-15,7.997064,1.,-36.417144,-3.1417144,0.5,0.,      161P    233
0.,0.;                                                               161P    234
128,1,8,1,2,0,1,0,0,1,0.,0.,0.6792896,0.6792896,                     163P    235
-3.14159265358979,-3.14159265358979,-3.14159265358979,               163P    236
-1.5707963267949,-1.5707963267949,0.,0.,1.5707963267949,             163P    237
1.5707963267949,3.14159265358979,3.14159265358979,                   163P    238
3.14159265358979,1.,1.,0.707106781186548,0.707106781186548,1.,       163P    239
1.,0.707106781186548,0.707106781186548,1.,1.,0.707106781186548,      163P    240
0.707106781186548,1.,1.,0.707106781186548,0.707106781186548,1.,      163P    241
1.,8.75000014901161,0.150888,-4.75,8.75000014901161,1.,-4.75,        163P    242
8.75000014901161,0.150888,-3.5,8.75000014901161,1.,-3.5,             163P    243
10.0000001490116,0.150888,-3.5,10.0000001490116,1.,-3.5,             163P    244
11.2500001490116,0.150888,-3.5,11.2500001490116,1.,-3.5,             163P    245
11.2500001490116,0.150888,-4.75,11.2500001490116,1.,-4.75,           163P    246
11.2500001490116,0.150888,-6.,11.2500001490116,1.,-6.,               163P    247
10.0000001490116,0.150888,-6.,10.0000001490116,1.,-6.,               163P    248
8.75000014901161,0.150888,-6.,8.75000014901161,1.,-6.,               163P    249
8.75000014901161,0.150888,-4.75,8.75000014901161,1.,-4.75,0.,        163P    250
0.6792896,-3.14159265358979,3.14159265358979;                        163P    251
128,1,8,1,2,0,1,0,0,1,0.,0.,0.6792896,0.6792896,                     165P    252
-3.14159265358979,-3.14159265358979,-3.14159265358979,               165P    253
-1.5707963267949,-1.5707963267949,0.,0.,1.5707963267949,             165P    254
1.5707963267949,3.14159265358979,3.14159265358979,                   165P    255
3.14159265358979,1.,1.,0.707106781186548,0.707106781186548,1.,       165P    256
1.,0.707106781186548,0.707106781186548,1.,1.,0.707106781186548,      165P    257
0.707106781186548,1.,1.,0.707106781186548,0.707106781186548,1.,      165P    258
1.,43.7525740527036,0.150888,-4.75,43.7525740527036,1.,-4.75,        165P    259
43.7525740527036,0.150888,-3.5,43.7525740527036,1.,-3.5,             165P    260
45.0025740527036,0.150888,-3.5,45.0025740527036,1.,-3.5,             165P    261
46.2525740527036,0.150888,-3.5,46.2525740527036,1.,-3.5,             165P    262
46.2525740527036,0.150888,-4.75,46.2525740527036,1.,-4.75,           165P    263
46.2525740527036,0.150888,-6.,46.2525740527036,1.,-6.,               165P    264
45.0025740527036,0.150888,-6.,45.0025740527036,1.,-6.,               165P    265
43.7525740527036,0.150888,-6.,43.7525740527036,1.,-6.,               165P    266
43.7525740527036,0.150888,-4.75,43.7525740527036,1.,-4.75,0.,        165P    267
0.6792896,-3.14159265358979,3.14159265358979;                        165P    268
128,1,8,1,2,0,1,0,0,1,0.,0.,0.6792896,0.6792896,                     167P    269
-3.14159265358979,-3.14159265358979,-3.14159265358979,               167P    270
-1.5707963267949,-1.5707963267949,0.,0.,1.5707963267949,             167P    271
1.5707963267949,3.14159265358979,3.14159265358979,                   167P    272
3.14159265358979,1.,1.,0.707106781186548,0.707106781186548,1.,       167P    273
1.,0.707106781186548,0.707106781186548,1.,1.,0.707106781186548,      167P    274
0.707106781186548,1.,1.,0.707106781186548,0.707106781186548,1.,      167P    275
1.,51.2500007450581,1.,-31.5000004693866,51.2500007450581,           167P    276
0.150888,-31.5000004693866,51.2500007450581,1.,                      167P    277
-30.2500004693866,51.2500007450581,0.150888,-30.2500004693866,       167P    278
50.0000007450581,1.,-30.2500004693866,50.0000007450581,0.150888,     167P    279
-30.2500004693866,48.7500007450581,1.,-30.2500004693866,             167P    280
48.7500007450581,0.150888,-30.2500004693866,48.7500007450581,1.,     167P    281
-31.5000004693866,48.7500007450581,0.150888,-31.5000004693866,       167P    282
48.7500007450581,1.,-32.7500004693866,48.7500007450581,0.150888,     167P    283
-32.7500004693866,50.0000007450581,1.,-32.7500004693866,             167P    284
50.0000007450581,0.150888,-32.7500004693866,51.2500007450581,1.,     167P    285
-32.7500004693866,51.2500007450581,0.150888,-32.7500004693866,       167P    286
51.2500007450581,1.,-31.5000004693866,51.2500007450581,0.150888,     167P    287
-31.5000004693866,0.,0.6792896,-3.14159265358979,                    167P    288
3.14159265358979;                                                    167P    289
128,1,8,1,2,0,1,0,0,1,0.,0.,0.6792896,0.6792896,                     169P    290
-3.14159265358979,-3.14159265358979,-3.14159265358979,               169P    291
-1.5707963267949,-1.5707963267949,0.,0.,1.5707963267949,             169P    292
1.5707963267949,3.14159265358979,3.14159265358979,                   169P    293
3.14159265358979,1.,1.,0.707106781186548,0.707106781186548,1.,       169P    294
1.,0.707106781186548,0.707106781186548,1.,1.,0.707106781186548,      169P    295
0.707106781186548,1.,1.,0.707106781186548,0.707106781186548,1.,      169P    296
1.,46.1225019502883,1.,-34.6204963929393,46.1225019502883,           169P    297
0.150888,-34.6204963929393,46.1225019502883,1.,                      169P    298
-33.3704963929393,46.1225019502883,0.150888,-33.3704963929393,       169P    299
44.8725019502883,1.,-33.3704963929393,44.8725019502883,0.150888,     169P    300
-33.3704963929393,43.6225019502883,1.,-33.3704963929393,             169P    301
43.6225019502883,0.150888,-33.3704963929393,43.6225019502883,1.,     169P    302
-34.6204963929393,43.6225019502883,0.150888,-34.6204963929393,       169P    303
43.6225019502883,1.,-35.8704963929393,43.6225019502883,0.150888,     169P    304
-35.8704963929393,44.8725019502883,1.,-35.8704963929393,             169P    305
44.8725019502883,0.150888,-35.8704963929393,46.1225019502883,1.,     169P    306
-35.8704963929393,46.1225019502883,0.150888,-35.8704963929393,       169P    307
46.1225019502883,1.,-34.6204963929393,46.1225019502883,0.150888,     169P    308
-34.6204963929393,0.,0.6792896,-3.14159265358979,                    169P    309
3.14159265358979;                                                    169P    310
128,1,8,1,2,0,1,0,0,1,0.,0.,0.679289599999999,0.679289599999999,     171P    311
-3.14159265358979,-3.14159265358979,-3.14159265358979,               171P    312
-1.5707963267949,-1.5707963267949,0.,0.,1.5707963267949,             171P    313
1.5707963267949,3.14159265358979,3.14159265358979,                   171P    314
3.14159265358979,1.,1.,0.707106781186548,0.707106781186548,1.,       171P    315
1.,0.707106781186548,0.707106781186548,1.,1.,0.707106781186548,      171P    316
0.707106781186548,1.,1.,0.707106781186548,0.707106781186548,1.,      171P    317
1.,11.2675019502883,1.,-34.6204963929393,11.2675019502883,           171P    318
0.150888,-34.6204963929393,11.2675019502883,1.,                      171P    319
-33.3704963929393,11.2675019502883,0.150888,-33.3704963929393,       171P    320
10.0175019502883,1.,-33.3704963929393,10.0175019502883,0.150888,     171P    321
-33.3704963929393,8.76750195028834,1.,-33.3704963929393,             171P    322
8.76750195028834,0.150888,-33.3704963929393,8.76750195028834,1.,     171P    323
-34.6204963929393,8.76750195028834,0.150888,-34.6204963929393,       171P    324
8.76750195028834,1.,-35.8704963929393,8.76750195028834,0.150888,     171P    325
-35.8704963929393,10.0175019502883,1.,-35.8704963929393,             171P    326
10.0175019502883,0.150888,-35.8704963929393,11.2675019502883,1.,     171P    327
-35.8704963929393,11.2675019502883,0.150888,-35.8704963929393,       171P    328
11.2675019502883,1.,-34.6204963929393,11.2675019502883,0.150888,     171P    329
-34.6204963929393,0.,0.679289599999999,-3.14159265358979,            171P    330
3.14159265358979;                                                    171P    331
128,1,1,1,1,0,0,1,0,0,-0.001,-0.001,1.1897568,1.1897568,-0.001,      173P    332
-0.001,0.0859112,0.0859112,1.,1.,1.,1.,53.01,0.140888,               173P    333
-36.417144,41.102432,0.140888,-36.417144,53.01,1.01,-36.417144,      173P    334
41.102432,1.01,-36.417144,-0.001,1.1897568,-0.001,0.0859112;         173P    335
128,1,1,1,1,0,0,1,0,0,-0.00100000000000089,-0.00100000000000089,     175P    336
0.425556,0.425556,-0.001,-0.001,0.0859112,0.0859112,1.,1.,1.,1.,     175P    337
12.252624,0.140888,-36.417144,7.987064,0.140888,-36.417144,          175P    338
12.252624,1.01,-36.417144,7.987064,1.01,-36.417144,                  175P    339
-0.00100000000000089,0.425556,-0.001,0.0859112;                      175P    340
128,1,1,1,1,0,0,1,0,0,-0.001,-0.001,3.98985046966713,                177P    341
3.98985046966713,-0.001,-0.001,0.101,0.101,1.,1.,1.,1.,              177P    342
12.242624,0.14239688,-2.53884488,12.242624,0.14239688,               177P    343
-36.42563512,12.242624,1.00849112,-2.53884488,12.242624,             177P    344
1.00849112,-36.42563512,-0.001,3.98985046966713,-0.001,0.101;        177P    345
128,1,1,1,1,0,0,1,0,0,-0.001,-0.001,3.401,3.401,-0.001,-0.001,       179P    346
0.101,0.101,1.,1.,1.,1.,41.12092312,0.14239688,-2.547336,            179P    347
12.23413288,0.14239688,-2.547336,41.12092312,1.00849112,             179P    348
-2.547336,12.23413288,1.00849112,-2.547336,-0.001,3.401,-0.001,      179P    349
0.101;                                                               179P    350
128,1,1,1,1,0,0,1,0,0,-0.589850469667135,-0.589850469667135,         181P    351
3.401,3.401,-0.001,-0.001,0.101,0.101,1.,1.,1.,1.,41.112432,         181P    352
0.14239688,-36.42563512,41.112432,0.14239688,-2.53884488,            181P    353
41.112432,1.00849112,-36.42563512,41.112432,1.00849112,              181P    354
-2.53884488,-0.589850469667135,3.401,-0.001,0.101;                   181P    355
128,1,1,1,1,0,0,1,0,0,-0.001,-0.001,4.28985046966713,                183P    356
4.28985046966713,-0.001,-0.001,0.101,0.101,1.,1.,1.,1.,53.,          183P    357
0.14239688,0.00849112,53.,0.14239688,-36.42563512,53.,               183P    358
1.00849112,0.00849112,53.,1.00849112,-36.42563512,-0.001,            183P    359
4.28985046966713,-0.001,0.101;                                       183P    360
128,1,1,1,1,0,0,1,0,0,-0.001,-0.001,5.301,5.301,-0.001,-0.001,       185P    361
0.101,0.101,1.,1.,1.,1.,7.98857288,0.14239688,0.,53.00849112,        185P    362
0.14239688,0.,7.98857288,1.00849112,0.,53.00849112,1.00849112,       185P    363
0.,-0.001,5.301,-0.001,0.101;                                        185P    364
128,1,1,1,1,0,0,1,0,0,-0.589850469667135,-0.589850469667135,         187P    365
3.701,3.701,-0.001,-0.001,0.101,0.101,1.,1.,1.,1.,7.997064,          187P    366
0.14239688,-36.42563512,7.997064,0.14239688,0.00849112000000041,     187P    367
7.997064,1.00849112,-36.42563512,7.997064,1.00849112,                187P    368
0.00849112000000041,-0.589850469667135,3.701,-0.001,0.101;           187P    369
128,1,1,1,1,0,0,1,0,0,-2.43985046966713,-2.43985046966713,1.851,     189P    370
1.851,-2.651,-2.651,2.651,2.651,1.,1.,1.,1.,7.98857288,1.,           189P    371
-36.42563512,7.98857288,1.,0.00849111999999819,53.00849112,1.,       189P    372
-36.42563512,53.00849112,1.,0.00849111999999597,                     189P    373
-2.43985046966713,1.851,-2.651,2.651;                                189P    374
128,1,1,1,1,0,0,1,0,0,-2.651,-2.651,2.651,2.651,-1.851,-1.851,       191P    375
2.43985046966713,2.43985046966713,1.,1.,1.,1.,53.00849112,           191P    376
0.150888,0.00849111999999819,7.98857288,0.150888,                    191P    377
0.00849111999999819,53.00849112,0.150888,-36.42563512,               191P    378
7.98857288,0.150888,-36.42563512,-2.651,2.651,-1.851,                191P    379
2.43985046966713;                                                    191P    380
502,26,8.75000014901161,0.150888,-4.75,8.75000014901161,1.,          193P    381
-4.75,43.7525740527036,0.150888,-4.75,43.7525740527036,1.,-4.75,     193P    382
51.2500007450581,1.,-31.5000004693866,51.2500007450581,0.150888,     193P    383
-31.5000004693866,46.1225019502883,1.,-34.6204963929393,             193P    384
46.1225019502883,0.150888,-34.6204963929393,11.2675019502883,1.,     193P    385
-34.6204963929393,11.2675019502883,0.150888,-34.6204963929393,       193P    386
53.,0.150888,-36.417144,41.112432,0.150888,-36.417144,41.112432,     193P    387
1.,-36.417144,53.,1.,-36.417144,12.242624,0.150888,-36.417144,       193P    388
7.997064,0.150888,-36.417144,7.997064,1.,-36.417144,12.242624,       193P    389
1.,-36.417144,12.242624,0.150888,-2.547336,12.242624,1.,             193P    390
-2.547336,41.112432,0.150888,-2.547336,41.112432,1.,-2.547336,       193P    391
53.,0.150888,0.,53.,1.,0.,7.997064,0.150888,0.,7.997064,1.,0.;       193P    392
504,39,85,193,1,193,1,87,193,1,193,2,89,193,2,193,2,91,193,3,        195P    393
193,3,93,193,3,193,4,95,193,4,193,4,97,193,5,193,5,99,193,5,193,     195P    394
6,101,193,6,193,6,103,193,7,193,7,105,193,7,193,8,107,193,8,193,     195P    395
8,109,193,9,193,9,111,193,9,193,10,113,193,10,193,10,115,193,11,     195P    396
193,12,117,193,12,193,13,119,193,13,193,14,121,193,14,193,11,        195P    397
123,193,15,193,16,125,193,16,193,17,127,193,17,193,18,129,193,       195P    398
18,193,15,131,193,15,193,19,133,193,20,193,18,135,193,19,193,20,     195P    399
137,193,21,193,19,139,193,22,193,20,141,193,21,193,22,143,193,       195P    400
21,193,12,145,193,22,193,13,147,193,23,193,11,149,193,24,193,14,     195P    401
151,193,23,193,24,153,193,25,193,23,155,193,26,193,24,157,193,       195P    402
25,193,26,159,193,25,193,16,161,193,26,193,17;                       195P    403
406,1,5HBody1;                                                       197P    404
314,62.7450980392157,62.7450980392157,62.7450980392157,13HSteel      199P    405
- Satin;                                                             199P    406
S      1G      3D    200P    406                                        T      1
